# xmcd CD database file
#
# Track frame offsets:
#	183
#	30808
#	56083
#	109758
#	150983
#	195470
#
# Disc length: 3107 seconds
#
# Revision: 2
# Processed by: cddbd v1.5.1PL0 Copyright (c) Steve Scherf et al.
# Submitted via: CDex 1.51
#
DISCID=3b0c2106
DTITLE=Charlie Parker - Birdology vol.1
DYEAR=1989
DGENRE=Jazz
TTITLE0=Bird Lives
TTITLE1=Yardbird Suite
TTITLE2=Parker's Mood
TTITLE3=Chasin The Bird
TTITLE4=Big Foot
TTITLE5=Donna Lee
EXTD=YEAR: 1989
EXTT0=
EXTT1=
EXTT2=
EXTT3=
EXTT4=
EXTT5=
PLAYORDER=
